<?xml version="1.0" encoding="UTF-8"?>
<svg xmlns="http://www.w3.org/2000/svg" viewBox="0 0 2374.16 1074.22">
  <defs>
    <style>
      .cls-1 { fill: #5f9fa7; }
      .cls-2 { fill: #428e97; }
      .cls-5 { fill: #3c717d; }
      .cls-6 { fill: #2c6d7a; }
      .cls-7 { fill: #205669; }
      .cls-8 { fill: #367a84; }
      .cls-9 { fill: #265667; }
      .cls-10 { fill: #64aeb3; }
      .cls-11 { fill: #2a6573; }
      .cls-12 { fill: #5fa8ac; }
      .cls-13 { fill: #365f6d; }
      .cls-14 { fill: #21556a; }
      .cls-15 { fill: #25697b; }
      .cls-16 { fill: #5fa6ae; }
      .cls-17 { fill: #4b97a1; }
      .cls-18 { fill: #5da3a9; }
      .cls-19 { fill: #4d969f; }
      .cls-20 { fill: #3e6a75; }
      .cls-21 { fill: #529499; }
      .cls-22 { fill: #256676; }
      .cls-23 { fill: #226177; }
      .cls-24 { fill: #458892; }
      .cls-25 { fill: #356b76; }
      .cls-26 { fill: #206472; }
      .cls-27 { fill: #2f808a; }
      .cls-28 { fill: #65a6ae; }
      .cls-29 { fill: #286e84; }
      .cls-30 { fill: #4f7378; }
      .cls-31 { fill: #276e7e; }
      .cls-32 { fill: #426f7c; }
      .cls-33 { fill: #529aa1; }
      .cls-34 { fill: #2a5f6c; }
      .cls-35 { fill: #367e85; }
      .cls-36 { fill: #265165; }
      .cls-37 { fill: #1f6974; }
      .cls-38 { fill: #507075; }
      .cls-41 { fill: #297c85; }
      .cls-42 { fill: #275566; }
      .cls-43 { fill: #276170; }
      .cls-44 { fill: #79bfc4; }
      .cls-45 { fill: #77b7bd; }
      .cls-46 { fill: #205f77; }
      .cls-47 { fill: #256274; }
      .cls-48 { fill: #206c80; }
      .cls-50 { fill: #448995; }
      .logo-aha { fill: #006a70; font-family: 'Plus Jakarta Sans', sans-serif; font-weight: 800; font-size: 689.2px; letter-spacing: -0.02em; }
      .logo-software { fill: #2a3435; font-family: 'Plus Jakarta Sans', sans-serif; font-weight: 700; font-size: 352.4px; letter-spacing: -0.01em; }
    </style>
  </defs>
  <g id="Layer_1">
    <g id="Generative_Object">
      <g>
        <path class="cls-47" d="M319.97,686.15c2.66,9.2,12.97,6.52,19.34,6.45l213.94-2.17c12.21-.12,23.72-9.44,36.21,2.23l-40.13,58.25c-7.44,3.12-17.88,9.42-18.21,25.34l104.17-40.96,44.99-44.21,40.86,2.12-14.63,17.81c8.96,3.82,11.3,11.72,9.33,19.36-1,3.89-6.42,6.97-9.02,12.79l-3.81,8.54c-.57,1.28,1.94,4.07,3.91,2.59-1.01,11.13-5.38,21.57-14.37,30.85l-332.33.13-52.64-99.57c5.91.79,9.5-.39,12.38.45Z"/>
        <path class="cls-19" d="M648.87,80.94c-3.29.23-10.11-2.54-12.9,1.04-1.7,2.18-3.15,8.28-3.14,13.69l.2,94.45,5.38-8.24c-5.16,7.9,19.05-5.93,41.05-18.01l69.21,186.76c-10.57-.84-15.94,4.79-22.93,13.43l-9.48,11.71c-3.13,3.87,3.19,12.31,6.29,16.71-5.61,2.14-7.28-2.56-9.18-2.96-2.94-.62-7.4,6.47-8.94,9.64,1.18-8.11-.43-11.15-1.48-13.42-.97-2.08,5.74-4.2,7.66-3.31-.35-5.51-3.97-10.13-6.57-10.2l-14.41-.39c.45-4.38,4.07-5.33,6.82-4.77,2.47.51.84-7.65-4.54-8.76-1.13-11.65-14.58-22.62-19.45-13.33-5.56,10.59-11.89,14.13-10.9,25.66.85,9.88-9.96,31.81.78,37.71l37.37,20.53c1.24-5.33,2.04-10.31,3-11.9,1.53-2.53,3.06-1.26,4.63.11,2.95,2.58,4.44,4.44,3.52,6.06-1.51,2.65-7.3,5.53-6.54,6.81,4.6,7.21,15.54,15.54,20.64,18.71-9.63,1.29-6.81,11.89-.62,12.27,9.27,17.67,6.29,34.78,7.78,51.95-.86,11.48-17.1-3.08-31.34,21.51-4.59-8.05-9.22-.12-5.15,4.79.26,4.82,2.29,6.88,3.34,8.52s-.19,6.87-2.54,8.13c-1.56.84-5.04-3.49-6.22-6.42l-44.09-109c-12.51-30.93-34.52-53.91-66.42-49.02,2.53,21.46-20.35,4.69-19.1,24.81l-15.36-48.19c7.41-.68,15.86-1.35,23.97,1.49l58.49,20.46-19.82-53.22c6.3-2.75,8.13,4.39,6.75,8.74,7.17,2.79,1.07,14.14,12.3,17.7,3.58-106.11-4-214.44-3.89-323.51,5.94-2.66,10.25.1,13.62,9l12.19,32.24Z"/>
        <path class="cls-9" d="M489.97,430.69l-56.74,155.75-130.08,91.69-44.02-129.51,93.21-39.87c11.39-7.63-.13,39.66-14.51,57.44-6.85,8.46-7.3,22.67,1.1,31.7l87.44-195.72c4.86-10.88,27.72-10.52,32.12-2.62l29.52,14.17c1.09.52-4.03,6.87-3.87,8.54.25,2.5,2.34,4.6,5.82,8.43Z"/>
        <path class="cls-14" d="M816.57,816.16c-1.07,13.13,3.9,25.16,16.16,25,4.33,6.01,14.41,23.81,24.15,19.84,3.48-1.39,12.56,10.05,1.65,17.7l80.32,60.85c5.88,4.45,15.02,5.88,14.36,16.29l-117.2.77-75.78,1.62-58.54-165.95,53.82-91.78c24.22,38.34,40.19,126.93,50.5,120.32,2.64-1.69,6.37-5.85,10.56-4.66Z"/>
        <path class="cls-43" d="M286.11,727.86c7.85,23.35,3.53,51.05,8.89,75.93,3.13,14.54.36,26.99.26,41.38l1.21,104.27c-.96,2.68-.54,4.51-2.26,6.69-2.28,2.89-3.93,1.43-5.11,1.32.59-.99,2.28-7.6.58-10.14-17.2-25.71-21.05-58.82-46.52-81.11,8.33,2.82,6.92-5.54,5.29-10.04-2.54-7-8.94-10.78-15.36-6l-129.34,96.3c-3.02,2.25-4.31,6.29-3.14,11.64-5.82.12-17.24-3.47-13.08-14.35l76.81-201,55.02,54.59.94-76.1,64.81-27.31c.07,22.91-10.96,35.11,1,33.93Z"/>
        <path class="cls-50" d="M911.49,800.55l-47.34,12.82-47.21-61.85c-5.88,24.98,1.25,44.61-.38,64.63-4.19-1.18-7.92,2.97-10.56,4.66-10.31,6.61-26.28-81.98-50.5-120.32l55.33-164.99,100.66,265.04Z"/>
        <path class="cls-42" d="M646.14,440.44l44.09,109c1.18,2.93,4.66,7.25,6.22,6.42,2.35-1.26,3.55-6.57,2.54-8.13-1.06-1.64-3.09-3.69-3.34-8.52-4.06-4.92.56-12.85,5.15-4.79,14.24-24.59,30.48-10.03,31.34-21.51,2.89-1.75,6.28,1.59,5.68,3.43l-3.06,9.3,8.61,45.44,3.16,58.69c8.87,3.87,14.83.79,21.57-1.8-4.8,15.83-7.9,31.98-17.21,48.38l-129.86-86.51-26.21-75.53c19.32-27.68,40.62-29.64,38.42-71.05,2.27-4.72,8.3-3.54,12.89-2.81Z"/>
        <path class="cls-16" d="M608.06,1.81c-24.71,36.9-52.27,66.38-78.27,97.05l.73,179.94h-7.21s-1.61-100.95-1.61-100.95l-38.1,10.66L438.51,0l169.56,1.81Z"/>
        <path class="cls-28" d="M627.14,608.93c5.25,22.49,12.87,43.88,23.67,66.28l3.99,8.28c.69,1.44-.34,4.02-2.27,5.95-15.6-.93-37.94-8.33-53.86,4.9-19.29,16.03-28.46,47.82-49.35,56.58l40.13-58.25c-12.49-11.67-24-2.36-36.21-2.23l-213.94,2.17c-6.37.06-16.68,2.74-19.34-6.45,7.82,2.27,15.58-2.36,23.94-2.93l79.16-5.32c-3.99-11.53.86-19.45,5.09-19.93.77,7.16,4.04,11.47-1.46,20.43,6.81,5.54,23.75,5.06,25.44-7,.82-5.86-5.41-7.11-6.8-5.65-1.33,1.4-5.01-9.6-2.82-12.78l86.05-27.87c.24-12-9.22-11.69-10.7-19.05l85.03.05c7.67,0,18.1-1.12,24.23,2.82Z"/>
        <path class="cls-1" d="M443.17,60.22c-3.26-.87-7.31-2.87-12.74-.95l-.91,146.24-4.6,165.28c15.12-18.19,14.37-43.53,23.42-65.36,1.81-2.64,10.85-.88,12.09-.93.26,9.56-9.4-.33-5.33,10.74l-21.4,57.46c-1.94,5.21-3.79,12.41-1.02,14.16,5.01,3.16,7.52-.76,11.22-2.25l68.67-27.21c1.57,11.09-14.76,49.22-22.61,73.28-3.48-3.84-5.57-5.94-5.82-8.43-.17-1.66,4.95-8.01,3.87-8.54l-29.52-14.17c-4.4-7.9-27.26-8.26-32.12,2.62l-87.44,195.72c-8.4-9.02-7.95-23.24-1.1-31.7,14.38-17.78,25.9-65.07,14.51-57.44l-.09-11.09c3.58,1.36,5.8,1.89,8.48-5.36l48.83-131.8c1.45-3.9,4.69-8.34,2.6-13.89l-35.24-93.65c10.24,5.86,21.79.75,30.24-12.98,1.75-7.26,3.77-9.37,11.8-1.57,3.59-46.26,4.07-89.96-3.31-137.71-5.99,1.6-11.06.57-16.24-.03l32.71-78.98c6.19,11.4,7.97,25.34,11.05,38.53Z"/>
        <path class="cls-15" d="M483.6,188.51l38.1-10.66,1.61,100.96h7.21s-.73-179.94-.73-179.94c26-30.67,53.56-60.14,78.27-97.05,4.46,3.21,5.57,7.71,4.52,11.99l-85.6,349.04-43.39-174.33Z"/>
        <path class="cls-29" d="M748.68,350.64l56.9,153.64-37.48,123.69c-6.73,2.59-12.69,5.67-21.57,1.8l-3.16-58.69-8.61-45.44,3.06-9.3c.61-1.84-2.79-5.17-5.68-3.43-1.5-17.16,1.48-34.28-7.78-51.95-6.19-.38-9.01-10.98.62-12.27l70.79,44.02-73.21-100.22c-3.11-4.4-9.42-12.84-6.29-16.71l9.48-11.71c6.99-8.64,12.36-14.28,22.93-13.43Z"/>
        <path class="cls-7" d="M289.1,957.45l-30.66-2.74-157.83,3.39c-1.17-5.34.11-9.39,3.14-11.64l129.34-96.3c6.42-4.78,12.82-1,15.36,6,1.63,4.5,3.05,12.86-5.29,10.04,25.47,22.29,29.32,55.4,46.52,81.11,1.7,2.54.01,9.15-.58,10.14Z"/>
        <path class="cls-38" d="M623.07,39.7c-.11,109.07,7.48,217.4,3.89,323.51-11.23-3.56-5.13-14.91-12.3-17.7,1.38-4.35-.45-11.49-6.75-8.74l-17.74-42.82-19.48-56.6,50.25-211.52c11.58,2.71,2.38,10.65,2.13,13.87Z"/>
        <path class="cls-30" d="M443.17,60.22l43.99,188.72-10.2.42-14.93,46.32c-3.72-.84-9.56-1.51-10.93,1.97-1.71,3.1-.94,7.21,1.68,9.15,2.62,1.94,6.06.94,7.66-2.29-1.25.06-10.28-1.7-12.09.93-9.04,21.83-8.29,47.18-23.42,65.36l4.6-165.28.91-146.24c5.43-1.92,9.48.08,12.74.95Z"/>
        <path class="cls-27" d="M517.89,606.06c1.48,7.36,10.94,7.04,10.7,19.05l-86.05,27.87c-2.19,3.18,1.49,14.18,2.82,12.78,1.39-1.47,7.62-.21,6.8,5.65-1.69,12.07-18.62,12.54-25.44,7,5.5-8.97,2.23-13.27,1.46-20.43-4.23.48-9.08,8.4-5.09,19.93l-79.16,5.32c-8.36.56-16.12,5.19-23.94,2.93-2.87-.83-6.47.35-12.38-.45l128.32-79.24c25.89-10.43,56.97-.43,81.97-.41Z"/>
        <path class="cls-36" d="M296.48,949.44l-1.21-104.27c.1-14.39,2.87-26.83-.26-41.38-5.35-24.88-1.03-52.59-8.89-75.93,2.56-9.15,4.17-19.12,12.62-31.03l54.09,94.86-56.35,157.75Z"/>
        <path class="cls-23" d="M864.15,813.37c12.37,16.2,28.13,31.28,44.28,48.34,5.01,5.3,2.49,23.14,14.32,24.96-6.08,3.13-4.56,9.49-3.06,9.99l7.25,2.42c3.12,1.04,4.25,7.53,4.29,9.51s-5.92,7.93-4.6,9.11l33.55,29.75c3.45-4.5,2.17-8.35,2.84-11.24,1.75.97,6.71,5.5,7.55,8.97,1.72,7.1-2.37,7.64-7.74,10.38-3.84,1.96-5.57,1.33-9.64.28.66-10.41-8.48-11.84-14.36-16.29l-80.32-60.85c10.91-7.66,1.82-19.09-1.65-17.7-9.74,3.97-19.82-13.82-24.15-19.84-12.26.16-17.23-11.87-16.16-25,1.63-20.03-5.5-39.66.38-64.63l47.21,61.85Z"/>
        <polygon class="cls-20" points="217.67 709.01 200.45 669.93 248.61 553.03 290.87 677.83 217.67 709.01"/>
        <path class="cls-17" d="M376.91,252.96l-17.73-46.17,40.23-106.12c5.18.61,10.25,1.63,16.24.03,7.38,47.75,6.89,91.45,3.31,137.71-8.03-7.8-10.05-5.69-11.8,1.57-8.45,13.73-20,18.84-30.24,12.98Z"/>
        <path class="cls-37" d="M646.14,440.44c-4.59-.73-10.62-1.91-12.89,2.81,2.2,41.42-19.1,43.37-38.42,71.05l-34.2-98.07c-1.25-20.12,21.63-3.35,19.1-24.81,31.89-4.89,53.91,18.09,66.42,49.02Z"/>
        <path class="cls-46" d="M607.91,336.77l19.82,53.22-58.49-20.46c-8.11-2.84-16.56-2.17-23.97-1.49-1.33-4.16-3.93-8.18-1.98-16.31l27.4-114.38,19.48,56.6,17.74,42.82Z"/>
        <path class="cls-48" d="M487.16,248.93c8.33,35.75,20.12,70.92,25.42,108.47l-68.67,27.21c-3.7,1.49-6.21,5.41-11.22,2.25-2.77-1.75-.92-8.94,1.02-14.16l21.4-57.46c-4.07-11.07,5.59-1.18,5.33-10.74-1.59,3.22-5.04,4.22-7.66,2.29-2.62-1.94-3.39-6.05-1.68-9.15,1.37-3.48,7.21-2.81,10.93-1.97l14.93-46.32,10.2-.42Z"/>
        <path class="cls-41" d="M409.56,360.5l-48.83,131.8c-2.68,7.24-4.9,6.71-8.48,5.36l-4.24-160.15,61.55,22.99Z"/>
        <path class="cls-2" d="M706.94,754.3c-1.97,1.49-4.48-1.31-3.91-2.59l3.81-8.54c2.6-5.82,8.01-8.9,9.02-12.79,1.97-7.64-.38-15.54-9.33-19.36l14.63-17.81-40.86-2.12-27.75-1.66c1.93-1.93,2.96-4.51,2.27-5.95l-3.99-8.28c-10.8-22.4-18.43-43.79-23.67-66.28l119.97,76.92c-11.71,26.91-26.96,59.8-40.18,68.45Z"/>
        <path class="cls-34" d="M333.83,473.9c-3.8,7.01-10.89,9.79-18.43,13.04l-62.46,26.94,1.63-97.82,29.41-34.9c2.08,18.74-3.08,33.76-8,53.74,18.74,15.77,36.49,31.04,57.84,38.99Z"/>
        <path class="cls-33" d="M303.31,323.64c-14.07-6.42-27.2-15.81-37.74-26.25-9.47,11.36-11.49-5.05-14.42-8.16l-62.34-37.43c-1.66-7.21-7.5-2.47-7.37,2.51-3.5-5.27-7.81-8.52-9.98-17.54l78.7,10.65c11.03,1.49,32.05-1.84,39.05,9.19,10.24,19.79,8.89,43.62,14.09,67.05Z"/>
        <path class="cls-31" d="M911.49,800.55l51.54,135.66c-.67,2.89.61,6.74-2.84,11.24l-33.55-29.75c-1.33-1.18,4.64-7.13,4.6-9.11s-1.17-8.47-4.29-9.51l-7.25-2.42c-1.5-.5-3.02-6.86,3.06-9.99-11.83-1.82-9.31-19.66-14.32-24.96-16.15-17.06-31.91-32.14-44.28-48.34l47.34-12.82Z"/>
        <path class="cls-25" d="M303.31,323.64l-53.56,33.43-68.3-102.77c-.12-4.98,5.72-9.73,7.37-2.51l62.34,37.43c2.92,3.12,4.95,19.52,14.42,8.16,10.54,10.45,23.66,19.84,37.74,26.25Z"/>
        <path class="cls-22" d="M104.99,480.27c-.06,9.04,5.44,12.82,8.9,15.6,6.3,5.06,14.44.32,21.1-3.1l46.43-28.15c3.95-.81,9.74-6.64,19.03-2.88l-96.11,106.25-7.85-75.04c-.65-6.23,4.28-11.81,8.49-12.68Z"/>
        <path class="cls-35" d="M397.09,337.44c-23.78-3.25-39.21-14.33-59.27-23.67l-3.71-100.1c24.86,39.31,43.37,77.78,62.98,123.77Z"/>
        <path class="cls-12" d="M124.97,367.97c-11.66-39.03-40.48-70.36-50.64-106.26,25.82,20.71,56.31,44.18,80.3,72.33l3.33,44.33-32.99-10.4Z"/>
        <path class="cls-44" d="M648.87,80.94c10.41,27.54,20.43,55.53,30.59,82.94-22,12.08-46.21,25.9-41.05,18.01l-5.38,8.24-.2-94.45c-.01-5.41,1.45-11.51,3.14-13.69,2.79-3.58,9.61-.82,12.9-1.04Z"/>
        <path class="cls-6" d="M189.27,626.92l-25.54-49.93,46.09-62.42c9.31,52.98,4.17,69.52-20.55,112.36Z"/>
        <path class="cls-21" d="M333.83,473.9c-21.35-7.96-39.09-23.22-57.84-38.99,4.92-19.98,10.08-35,8-53.74,1.92-2.28,3.62-10.67,9.37-9.88l40.48,102.61Z"/>
        <path class="cls-11" d="M113.23,674.88l-48.05,12.05c9.54-18.29,13.96-38.23,27.84-51.95,8.03-7.93,27.23-3.2,36.77-1.47,1.14,16.69-3.65,38.14-16.56,41.37Z"/>
        <path class="cls-13" d="M204.87,764.04l-60.77-60.35,40.81-25.79c7.83,28.98,17.93,51.29,19.96,86.15Z"/>
        <path class="cls-26" d="M74.33,261.71c10.16,35.9,38.98,67.23,50.64,106.26l-37.25-13.71c-8.91-34.52-17.67-64.44-23.48-95.54,5.14-3.08,8.28,1.54,10.09,2.99Z"/>
        <path class="cls-5" d="M225.32,136.6l3.19,59.5-55.4-32.31c-1.74-1.02,2-9.72,2.8-11.56,18.32-.95,30.59-20.25,49.41-15.62Z"/>
        <path class="cls-24" d="M65.46,168.98c-13.93,7.95-23.9,11.12-35.19,11.68L3.61,125.9c28.3,8.85,53.77,15.44,61.85,43.08Z"/>
        <polygon class="cls-8" points="36.58 456.09 0 421.41 63.02 411.57 36.58 456.09"/>
        <path class="cls-18" d="M181.42,464.62l-46.43,28.15c-6.66,3.42-14.8,8.16-21.1,3.1-3.47-2.78-8.97-6.56-8.9-15.6l76.43-15.65Z"/>
        <path class="cls-10" d="M225.32,136.6c-18.82-4.63-31.09,14.67-49.41,15.62l17.57-40.55c13.12,1.69,31.03,9.96,31.83,24.93Z"/>
        <path class="cls-32" d="M652.54,689.43l27.75,1.66-44.99,44.21-104.17,40.96c.33-15.92,10.77-22.22,18.21-25.34,20.89-8.76,30.05-40.55,49.35-56.58,15.92-13.23,38.26-5.84,53.86-4.9Z"/>
        <path class="cls-45" d="M722.56,392.49l73.21,100.22-70.79-44.02c-5.1-3.17-16.05-11.5-20.64-18.71-.76-1.28,5.03-4.16,6.54-6.81.92-1.62-.57-3.48-3.52-6.06-1.57-1.37-3.1-2.65-4.63-.11-.96,1.59-1.77,6.57-3,11.9l-37.37-20.53c-10.74-5.9.07-27.83-.78-37.71-.99-11.53,5.34-15.07,10.9-25.66,4.87-9.28,18.32,1.68,19.45,13.33,5.38,1.11,7.01,9.27,4.54,8.76-2.75-.56-6.37.39-6.82,4.77l14.41.39c2.61.07,6.22,4.68,6.57,10.2-1.92-.89-8.63,1.22-7.66,3.31,1.05,2.27,2.66,5.31,1.48,13.42,1.53-3.17,6-10.26,8.94-9.64,1.91.4,3.58,5.1,9.18,2.96Z"/>
      </g>
      <!-- Wordmark: Plus Jakarta Sans (brand font) -->
      <text class="logo-aha" transform="translate(1056 652.89) scale(.84 1)"><tspan x="0" y="0">AHA</tspan></text>
      <text class="logo-software" transform="translate(1039.91 959.34) scale(.84 1)"><tspan x="0" y="0">Software</tspan></text>
    </g>
  </g>
</svg>
