<svg preserveAspectRatio="none" width="100%" height="100%" overflow="visible" style="display: block;" viewBox="0 0 20.6603 22.4758" fill="none" xmlns="http://www.w3.org/2000/svg">
<path id="Icon" d="M10.3711 22.4758C9.27975 22.4758 8.31581 22.1068 7.47928 21.3688C6.64275 20.6308 6.17401 19.7466 6.07305 18.7162C5.10512 19.1264 4.09471 19.1677 3.04183 18.84C1.98895 18.5123 1.18046 17.8829 0.616359 16.9518C0.0474529 16.0239 -0.127623 15.0027 0.0911305 13.8881C0.309884 12.7735 0.869581 11.8932 1.77022 11.2471C0.895221 10.6176 0.345139 9.76155 0.119975 8.67902C-0.105188 7.5965 0.0474529 6.59129 0.577899 5.66341C1.10835 4.73553 1.90722 4.0837 2.97452 3.7079C4.04183 3.33211 5.06185 3.34934 6.0346 3.7596C6.13555 2.71313 6.60429 1.82492 7.44082 1.09495C8.27735 0.364983 9.24129 0 10.3326 0C11.424 0 12.3879 0.364983 13.2244 1.09495C14.061 1.82492 14.5297 2.71313 14.6307 3.7596C15.629 3.34934 16.6451 3.32249 17.6787 3.67906C18.7124 4.03562 19.5072 4.69707 20.0633 5.66341C20.5938 6.61693 20.7528 7.62534 20.5405 8.68864C20.3281 9.75193 19.7716 10.6057 18.871 11.2499C19.7716 11.8941 20.3345 12.7671 20.5597 13.8689C20.7849 14.9706 20.6322 15.9983 20.1018 16.9518C19.5377 17.9341 18.7428 18.5764 17.7172 18.8785C16.6915 19.1805 15.6755 19.1264 14.6691 18.7162C14.5682 19.7466 14.0994 20.6308 13.2629 21.3688C12.4264 22.1068 11.4624 22.4758 10.3711 22.4758V22.4758M10.3711 20.6008C11.3503 20.6008 12.0846 20.1789 12.5742 19.3352C13.0638 18.4914 13.0586 17.6633 12.5586 16.8508L11.6836 15.4133C11.4544 15.4878 11.2357 15.5437 11.0273 15.581C10.819 15.6183 10.6003 15.6369 10.3711 15.6369C10.1628 15.6369 9.95122 15.6193 9.73647 15.584C9.52173 15.5487 9.29577 15.4959 9.05859 15.4253L8.18359 16.8508C7.68359 17.6633 7.67838 18.4914 8.16796 19.3352C8.65755 20.1789 9.39192 20.6008 10.3711 20.6008V20.6008M2.16813 15.9374C2.66404 16.7755 3.39798 17.1946 4.36994 17.1946C5.3419 17.1946 6.06826 16.7755 6.54901 15.9374L7.37353 14.4879C7.19885 14.3212 7.0386 14.148 6.89276 13.9682C6.74693 13.7884 6.62193 13.5987 6.51776 13.3989C6.4136 13.2114 6.32185 13.0167 6.24252 12.8148C6.1632 12.6129 6.09629 12.4037 6.0418 12.1874H4.36151C3.39837 12.1874 2.67321 12.6029 2.18603 13.4338C1.69885 14.2647 1.69289 15.0992 2.16813 15.9374V15.9374M14.0922 15.9374C14.5634 16.7675 15.2873 17.1846 16.2641 17.1886C17.2408 17.1926 17.9772 16.7755 18.4731 15.9374C18.9483 15.0992 18.9424 14.2647 18.4552 13.4338C17.968 12.6029 17.2428 12.1874 16.2797 12.1874H14.6003C14.558 12.4037 14.496 12.6129 14.4143 12.8148C14.3326 13.0167 14.2396 13.2095 14.1355 13.3932C14.0313 13.5973 13.9043 13.7891 13.7545 13.9686C13.6046 14.1481 13.4424 14.3212 13.2677 14.4879L14.0922 15.9374V15.9374M10.3206 11.2499V11.2499V11.2499V11.2499V11.2499V11.2499V11.2499V11.2499V11.2499V11.2499M6.0418 10.3124C6.09829 10.086 6.16891 9.86475 6.25364 9.64863C6.33838 9.43251 6.4337 9.2307 6.53961 9.0432C6.64552 8.8557 6.76731 8.67862 6.90499 8.51195C7.04267 8.34528 7.19885 8.17862 7.37353 8.01195L6.54901 6.56243C6.06985 5.71628 5.34389 5.2912 4.37113 5.28719C3.39837 5.28318 2.666 5.70826 2.17401 6.56243C1.70286 7.40057 1.70887 8.23511 2.19204 9.06604C2.67522 9.89697 3.39837 10.3124 4.36151 10.3124H6.0418V10.3124M16.2797 10.3124C17.2428 10.3124 17.966 9.89697 18.4492 9.06604C18.9323 8.23511 18.9384 7.40057 18.4672 6.56243C17.9752 5.70826 17.2428 5.28318 16.2701 5.28719C15.2973 5.2912 14.5714 5.71628 14.0922 6.56243L13.2677 8.01195C13.4435 8.17862 13.6028 8.34528 13.7457 8.51195C13.8886 8.67862 14.0121 8.8557 14.1162 9.0432C14.2204 9.2307 14.3134 9.43251 14.3951 9.64863C14.4768 9.86475 14.5449 10.086 14.5994 10.3124H16.2797V10.3124M9.0009 7.07447C9.23808 6.99595 9.46311 6.94106 9.67599 6.90981C9.88887 6.87856 10.1068 6.86293 10.3298 6.86293C10.5529 6.86293 10.7724 6.88056 10.9885 6.91582C11.2047 6.95108 11.4259 7.00396 11.6523 7.07447L12.5201 5.62495C13.0073 4.81245 13.0093 3.98433 12.5261 3.14058C12.043 2.29683 11.3118 1.87495 10.3326 1.87495C9.35346 1.87495 8.6243 2.29362 8.14513 3.13096C7.66596 3.9683 7.66596 4.79963 8.14513 5.62495L9.0009 7.07447V7.07447M9.0009 7.07447V7.07447C9.23808 6.99595 9.46311 6.94106 9.67599 6.90981C9.88887 6.87856 10.1068 6.86293 10.3298 6.86293C10.5529 6.86293 10.7724 6.88056 10.9885 6.91582C11.2047 6.95108 11.4259 7.00396 11.6523 7.07447V7.07447C11.4259 7.00396 11.2047 6.95108 10.9885 6.91582C10.7724 6.88056 10.5529 6.86293 10.3298 6.86293C10.1068 6.86293 9.88887 6.87856 9.67599 6.90981C9.46311 6.94106 9.23808 6.99595 9.0009 7.07447V7.07447M6.51776 13.3989C6.4136 13.2114 6.32185 13.0167 6.24252 12.8148C6.1632 12.6129 6.09629 12.4037 6.0418 12.1874V12.1874C6.09629 12.4037 6.1632 12.6129 6.24252 12.8148C6.32185 13.0167 6.4136 13.2095 6.51776 13.3932C6.62193 13.5973 6.74693 13.7891 6.89276 13.9686C7.0386 14.1481 7.19885 14.3212 7.37353 14.4879V14.4879C7.19885 14.3212 7.0386 14.148 6.89276 13.9682C6.74693 13.7884 6.62193 13.5987 6.51776 13.3989V13.3989M6.0418 10.3124C6.09829 10.086 6.16891 9.86475 6.25364 9.64863C6.33838 9.43251 6.4337 9.2307 6.53961 9.0432C6.64552 8.8557 6.76731 8.67862 6.90499 8.51195C7.04267 8.34528 7.19885 8.17862 7.37353 8.01195V8.01195C7.20194 8.17862 7.04643 8.34528 6.907 8.51195C6.76758 8.67862 6.64424 8.8557 6.53699 9.0432C6.43283 9.2307 6.33838 9.43251 6.25364 9.64863C6.16891 9.86475 6.09829 10.086 6.0418 10.3124V10.3124V10.3124M10.3711 15.6369C10.1628 15.6369 9.95122 15.6193 9.73647 15.584C9.52173 15.5487 9.29577 15.4959 9.05859 15.4253V15.4253C9.29577 15.4959 9.52273 15.5487 9.73948 15.584C9.95623 15.6193 10.1678 15.6369 10.3742 15.6369C10.6013 15.6369 10.819 15.6183 11.0273 15.581C11.2357 15.5437 11.4544 15.4878 11.6836 15.4133V15.4133C11.4544 15.4878 11.2357 15.5437 11.0273 15.581C10.819 15.6183 10.6003 15.6369 10.3711 15.6369V15.6369M13.2677 14.4879V14.4879C13.4424 14.3212 13.6041 14.148 13.7529 13.9682C13.9017 13.7884 14.0292 13.5987 14.1355 13.3989C14.2396 13.2114 14.3326 13.0167 14.4143 12.8148C14.496 12.6129 14.5577 12.4037 14.5994 12.1874V12.1874C14.5577 12.4037 14.496 12.6129 14.4143 12.8148C14.3326 13.0167 14.2396 13.2095 14.1355 13.3932C14.0313 13.5973 13.9043 13.7891 13.7545 13.9686C13.6046 14.1481 13.4424 14.3212 13.2677 14.4879V14.4879M14.5994 10.3124C14.5449 10.086 14.4768 9.86475 14.3951 9.64863C14.3134 9.43251 14.2204 9.2307 14.1162 9.0432C14.0121 8.8557 13.8886 8.67862 13.7457 8.51195C13.6028 8.34528 13.4435 8.17862 13.2677 8.01195V8.01195C13.4435 8.17862 13.6028 8.34528 13.7457 8.51195C13.8886 8.67862 14.0121 8.8557 14.1162 9.0432C14.2204 9.2307 14.3134 9.43251 14.3951 9.64863C14.4768 9.86475 14.5449 10.086 14.5994 10.3124V10.3124V10.3124M10.3206 13.7499C11.0081 13.7499 11.5967 13.5051 12.0862 13.0155C12.5758 12.526 12.8206 11.9374 12.8206 11.2499C12.8206 10.5624 12.5758 9.97387 12.0862 9.48428C11.5967 8.9947 11.0081 8.74991 10.3206 8.74991C9.63311 8.74991 9.04457 8.9947 8.55498 9.48428C8.0654 9.97387 7.82061 10.5624 7.82061 11.2499C7.82061 11.9374 8.0654 12.526 8.55498 13.0155C9.04457 13.5051 9.63311 13.7499 10.3206 13.7499V13.7499" fill="var(--fill-0, #006A70)"/>
</svg>
