<svg preserveAspectRatio="none" width="100%" height="100%" overflow="visible" style="display: block;" viewBox="0 0 28.5 28.5" fill="none" xmlns="http://www.w3.org/2000/svg">
<path id="Icon" d="M0.75 18C0.55 18 0.375 17.925 0.225 17.775C0.075 17.625 0 17.45 0 17.25C0 17.05 0.075 16.875 0.225 16.725C0.375 16.575 0.55 16.5 0.75 16.5C0.95 16.5 1.125 16.575 1.275 16.725C1.425 16.875 1.5 17.05 1.5 17.25C1.5 17.45 1.425 17.625 1.275 17.775C1.125 17.925 0.95 18 0.75 18V18M0.75 12C0.55 12 0.375 11.925 0.225 11.775C0.075 11.625 0 11.45 0 11.25C0 11.05 0.075 10.875 0.225 10.725C0.375 10.575 0.55 10.5 0.75 10.5C0.95 10.5 1.125 10.575 1.275 10.725C1.425 10.875 1.5 11.05 1.5 11.25C1.5 11.45 1.425 11.625 1.275 11.775C1.125 11.925 0.95 12 0.75 12V12M5.25 24.75C4.825 24.75 4.46875 24.6063 4.18125 24.3188C3.89375 24.0313 3.75 23.675 3.75 23.25C3.75 22.825 3.89375 22.4687 4.18125 22.1812C4.46875 21.8937 4.825 21.75 5.25 21.75C5.675 21.75 6.03125 21.8937 6.31875 22.1812C6.60625 22.4687 6.75 22.825 6.75 23.25C6.75 23.675 6.60625 24.0313 6.31875 24.3188C6.03125 24.6063 5.675 24.75 5.25 24.75V24.75M5.25 18.75C4.825 18.75 4.46875 18.6063 4.18125 18.3188C3.89375 18.0313 3.75 17.675 3.75 17.25C3.75 16.825 3.89375 16.4687 4.18125 16.1812C4.46875 15.8937 4.825 15.75 5.25 15.75C5.675 15.75 6.03125 15.8937 6.31875 16.1812C6.60625 16.4687 6.75 16.825 6.75 17.25C6.75 17.675 6.60625 18.0313 6.31875 18.3188C6.03125 18.6063 5.675 18.75 5.25 18.75V18.75M5.25 12.75C4.825 12.75 4.46875 12.6063 4.18125 12.3188C3.89375 12.0313 3.75 11.675 3.75 11.25C3.75 10.825 3.89375 10.4687 4.18125 10.1812C4.46875 9.89375 4.825 9.75 5.25 9.75C5.675 9.75 6.03125 9.89375 6.31875 10.1812C6.60625 10.4687 6.75 10.825 6.75 11.25C6.75 11.675 6.60625 12.0313 6.31875 12.3188C6.03125 12.6063 5.675 12.75 5.25 12.75V12.75M5.25 6.75C4.825 6.75 4.46875 6.60625 4.18125 6.31875C3.89375 6.03125 3.75 5.675 3.75 5.25C3.75 4.825 3.89375 4.46875 4.18125 4.18125C4.46875 3.89375 4.825 3.75 5.25 3.75C5.675 3.75 6.03125 3.89375 6.31875 4.18125C6.60625 4.46875 6.75 4.825 6.75 5.25C6.75 5.675 6.60625 6.03125 6.31875 6.31875C6.03125 6.60625 5.675 6.75 5.25 6.75V6.75M11.25 19.5C10.625 19.5 10.0938 19.2812 9.65625 18.8438C9.21875 18.4062 9 17.875 9 17.25C9 16.625 9.21875 16.0938 9.65625 15.6562C10.0938 15.2188 10.625 15 11.25 15C11.875 15 12.4062 15.2188 12.8438 15.6562C13.2812 16.0938 13.5 16.625 13.5 17.25C13.5 17.875 13.2812 18.4062 12.8438 18.8438C12.4062 19.2812 11.875 19.5 11.25 19.5V19.5M11.25 13.5C10.625 13.5 10.0938 13.2812 9.65625 12.8438C9.21875 12.4062 9 11.875 9 11.25C9 10.625 9.21875 10.0938 9.65625 9.65625C10.0938 9.21875 10.625 9 11.25 9C11.875 9 12.4062 9.21875 12.8438 9.65625C13.2812 10.0938 13.5 10.625 13.5 11.25C13.5 11.875 13.2812 12.4062 12.8438 12.8438C12.4062 13.2812 11.875 13.5 11.25 13.5V13.5M11.25 24.75C10.825 24.75 10.4687 24.6063 10.1812 24.3188C9.89375 24.0313 9.75 23.675 9.75 23.25C9.75 22.825 9.89375 22.4687 10.1812 22.1812C10.4687 21.8937 10.825 21.75 11.25 21.75C11.675 21.75 12.0313 21.8937 12.3188 22.1812C12.6063 22.4687 12.75 22.825 12.75 23.25C12.75 23.675 12.6063 24.0313 12.3188 24.3188C12.0313 24.6063 11.675 24.75 11.25 24.75V24.75M11.25 6.75C10.825 6.75 10.4687 6.60625 10.1812 6.31875C9.89375 6.03125 9.75 5.675 9.75 5.25C9.75 4.825 9.89375 4.46875 10.1812 4.18125C10.4687 3.89375 10.825 3.75 11.25 3.75C11.675 3.75 12.0313 3.89375 12.3188 4.18125C12.6063 4.46875 12.75 4.825 12.75 5.25C12.75 5.675 12.6063 6.03125 12.3188 6.31875C12.0313 6.60625 11.675 6.75 11.25 6.75V6.75M11.25 28.5C11.05 28.5 10.875 28.425 10.725 28.275C10.575 28.125 10.5 27.95 10.5 27.75C10.5 27.55 10.575 27.375 10.725 27.225C10.875 27.075 11.05 27 11.25 27C11.45 27 11.625 27.075 11.775 27.225C11.925 27.375 12 27.55 12 27.75C12 27.95 11.925 28.125 11.775 28.275C11.625 28.425 11.45 28.5 11.25 28.5V28.5M11.25 1.5C11.05 1.5 10.875 1.425 10.725 1.275C10.575 1.125 10.5 0.95 10.5 0.75C10.5 0.55 10.575 0.375 10.725 0.225C10.875 0.075 11.05 0 11.25 0C11.45 0 11.625 0.075 11.775 0.225C11.925 0.375 12 0.55 12 0.75C12 0.95 11.925 1.125 11.775 1.275C11.625 1.425 11.45 1.5 11.25 1.5V1.5M17.25 19.5C16.625 19.5 16.0938 19.2812 15.6562 18.8438C15.2188 18.4062 15 17.875 15 17.25C15 16.625 15.2188 16.0938 15.6562 15.6562C16.0938 15.2188 16.625 15 17.25 15C17.875 15 18.4062 15.2188 18.8438 15.6562C19.2812 16.0938 19.5 16.625 19.5 17.25C19.5 17.875 19.2812 18.4062 18.8438 18.8438C18.4062 19.2812 17.875 19.5 17.25 19.5V19.5M17.25 13.5C16.625 13.5 16.0938 13.2812 15.6562 12.8438C15.2188 12.4062 15 11.875 15 11.25C15 10.625 15.2188 10.0938 15.6562 9.65625C16.0938 9.21875 16.625 9 17.25 9C17.875 9 18.4062 9.21875 18.8438 9.65625C19.2812 10.0938 19.5 10.625 19.5 11.25C19.5 11.875 19.2812 12.4062 18.8438 12.8438C18.4062 13.2812 17.875 13.5 17.25 13.5V13.5M17.25 24.75C16.825 24.75 16.4687 24.6063 16.1812 24.3188C15.8937 24.0313 15.75 23.675 15.75 23.25C15.75 22.825 15.8937 22.4687 16.1812 22.1812C16.4687 21.8937 16.825 21.75 17.25 21.75C17.675 21.75 18.0313 21.8937 18.3188 22.1812C18.6063 22.4687 18.75 22.825 18.75 23.25C18.75 23.675 18.6063 24.0313 18.3188 24.3188C18.0313 24.6063 17.675 24.75 17.25 24.75V24.75M17.25 6.75C16.825 6.75 16.4687 6.60625 16.1812 6.31875C15.8937 6.03125 15.75 5.675 15.75 5.25C15.75 4.825 15.8937 4.46875 16.1812 4.18125C16.4687 3.89375 16.825 3.75 17.25 3.75C17.675 3.75 18.0313 3.89375 18.3188 4.18125C18.6063 4.46875 18.75 4.825 18.75 5.25C18.75 5.675 18.6063 6.03125 18.3188 6.31875C18.0313 6.60625 17.675 6.75 17.25 6.75V6.75M17.25 28.5C17.05 28.5 16.875 28.425 16.725 28.275C16.575 28.125 16.5 27.95 16.5 27.75C16.5 27.55 16.575 27.375 16.725 27.225C16.875 27.075 17.05 27 17.25 27C17.45 27 17.625 27.075 17.775 27.225C17.925 27.375 18 27.55 18 27.75C18 27.95 17.925 28.125 17.775 28.275C17.625 28.425 17.45 28.5 17.25 28.5V28.5M17.25 1.5C17.05 1.5 16.875 1.425 16.725 1.275C16.575 1.125 16.5 0.95 16.5 0.75C16.5 0.55 16.575 0.375 16.725 0.225C16.875 0.075 17.05 0 17.25 0C17.45 0 17.625 0.075 17.775 0.225C17.925 0.375 18 0.55 18 0.75C18 0.95 17.925 1.125 17.775 1.275C17.625 1.425 17.45 1.5 17.25 1.5V1.5M23.25 24.75C22.825 24.75 22.4687 24.6063 22.1812 24.3188C21.8937 24.0313 21.75 23.675 21.75 23.25C21.75 22.825 21.8937 22.4687 22.1812 22.1812C22.4687 21.8937 22.825 21.75 23.25 21.75C23.675 21.75 24.0313 21.8937 24.3188 22.1812C24.6063 22.4687 24.75 22.825 24.75 23.25C24.75 23.675 24.6063 24.0313 24.3188 24.3188C24.0313 24.6063 23.675 24.75 23.25 24.75V24.75M23.25 18.75C22.825 18.75 22.4687 18.6063 22.1812 18.3188C21.8937 18.0313 21.75 17.675 21.75 17.25C21.75 16.825 21.8937 16.4687 22.1812 16.1812C22.4687 15.8937 22.825 15.75 23.25 15.75C23.675 15.75 24.0313 15.8937 24.3188 16.1812C24.6063 16.4687 24.75 16.825 24.75 17.25C24.75 17.675 24.6063 18.0313 24.3188 18.3188C24.0313 18.6063 23.675 18.75 23.25 18.75V18.75M23.25 12.75C22.825 12.75 22.4687 12.6063 22.1812 12.3188C21.8937 12.0313 21.75 11.675 21.75 11.25C21.75 10.825 21.8937 10.4687 22.1812 10.1812C22.4687 9.89375 22.825 9.75 23.25 9.75C23.675 9.75 24.0313 9.89375 24.3188 10.1812C24.6063 10.4687 24.75 10.825 24.75 11.25C24.75 11.675 24.6063 12.0313 24.3188 12.3188C24.0313 12.6063 23.675 12.75 23.25 12.75V12.75M23.25 6.75C22.825 6.75 22.4687 6.60625 22.1812 6.31875C21.8937 6.03125 21.75 5.675 21.75 5.25C21.75 4.825 21.8937 4.46875 22.1812 4.18125C22.4687 3.89375 22.825 3.75 23.25 3.75C23.675 3.75 24.0313 3.89375 24.3188 4.18125C24.6063 4.46875 24.75 4.825 24.75 5.25C24.75 5.675 24.6063 6.03125 24.3188 6.31875C24.0313 6.60625 23.675 6.75 23.25 6.75V6.75M27.75 18C27.55 18 27.375 17.925 27.225 17.775C27.075 17.625 27 17.45 27 17.25C27 17.05 27.075 16.875 27.225 16.725C27.375 16.575 27.55 16.5 27.75 16.5C27.95 16.5 28.125 16.575 28.275 16.725C28.425 16.875 28.5 17.05 28.5 17.25C28.5 17.45 28.425 17.625 28.275 17.775C28.125 17.925 27.95 18 27.75 18V18M27.75 12C27.55 12 27.375 11.925 27.225 11.775C27.075 11.625 27 11.45 27 11.25C27 11.05 27.075 10.875 27.225 10.725C27.375 10.575 27.55 10.5 27.75 10.5C27.95 10.5 28.125 10.575 28.275 10.725C28.425 10.875 28.5 11.05 28.5 11.25C28.5 11.45 28.425 11.625 28.275 11.775C28.125 11.925 27.95 12 27.75 12V12" fill="var(--fill-0, #006A70)"/>
</svg>
