<svg preserveAspectRatio="none" width="100%" height="100%" overflow="visible" style="display: block;" viewBox="0 0 21.4961 21.5118" fill="none" xmlns="http://www.w3.org/2000/svg">
<g id="Container">
<path id="Icon" d="M9 21.5118C9 20.9618 9.19583 20.491 9.5875 20.0993C9.97917 19.7077 10.45 19.5118 11 19.5118V19.5118V14.3118C10.8 14.2285 10.6125 14.1327 10.4375 14.0243C10.2625 13.916 10.1 13.7952 9.95 13.6618L7.75 15.0618C7.51667 15.1952 7.2625 15.2827 6.9875 15.3243C6.7125 15.366 6.43333 15.3452 6.15 15.2618L1.65 13.9868C1.16667 13.8535 0.770833 13.5827 0.4625 13.1743C0.154167 12.766 0 12.3035 0 11.7868C0 11.1535 0.220833 10.616 0.6625 10.1743C1.10417 9.73268 1.64167 9.51184 2.275 9.51184H9.8C9.96667 9.32851 10.15 9.17018 10.35 9.03684C10.55 8.90351 10.7667 8.79518 11 8.71184V5.28684C11 5.00351 11.0542 4.73684 11.1625 4.48684C11.2708 4.23684 11.425 4.02018 11.625 3.83684L15.05 0.636842C15.4333 0.270175 15.8792 0.0618421 16.3875 0.0118421C16.8958 -0.0381579 17.3667 0.0701754 17.8 0.336842C18.3333 0.670175 18.6792 1.14101 18.8375 1.74934C18.9958 2.35768 18.9083 2.92851 18.575 3.46184L14.6 10.0368C14.7167 10.2368 14.8042 10.4535 14.8625 10.6868C14.9208 10.9202 14.9583 11.1618 14.975 11.4118L17.675 12.0618C17.9417 12.1285 18.1833 12.2452 18.4 12.4118C18.6167 12.5785 18.7917 12.7785 18.925 13.0118L21.2 17.1118C21.45 17.5618 21.5417 18.0368 21.475 18.5368C21.4083 19.0368 21.1917 19.4702 20.825 19.8368C20.375 20.2868 19.8375 20.5118 19.2125 20.5118C18.5875 20.5118 18.05 20.2868 17.6 19.8368L13 15.2368V15.2368V15.2368V19.5118V19.5118C13.55 19.5118 14.0208 19.7077 14.4125 20.0993C14.8042 20.491 15 20.9618 15 21.5118H9V21.5118M3 3.51184V1.51184H9V3.51184H3V3.51184M13 5.28684V8.71184C13.0167 8.71184 13.0292 8.71601 13.0375 8.72434C13.0458 8.73268 13.0583 8.73684 13.075 8.73684L16.875 2.41184C16.9083 2.34518 16.9167 2.27434 16.9 2.19934C16.8833 2.12434 16.8417 2.07018 16.775 2.03684C16.725 2.00351 16.6625 1.99518 16.5875 2.01184C16.5125 2.02851 16.4583 2.05351 16.425 2.08684L13 5.28684V5.28684M0 7.51184V5.51184H5V7.51184H0V7.51184M12 12.5118C12.2833 12.5118 12.5208 12.416 12.7125 12.2243C12.9042 12.0327 13 11.7952 13 11.5118C13 11.2285 12.9042 10.991 12.7125 10.7993C12.5208 10.6077 12.2833 10.5118 12 10.5118C11.7167 10.5118 11.4792 10.6077 11.2875 10.7993C11.0958 10.991 11 11.2285 11 11.5118C11 11.7952 11.0958 12.0327 11.2875 12.2243C11.4792 12.416 11.7167 12.5118 12 12.5118V12.5118M6.725 13.3618L9.05 11.9618C9.03333 11.8785 9.025 11.8035 9.025 11.7368C9.025 11.6702 9.025 11.5952 9.025 11.5118H2.275C2.19167 11.5118 2.125 11.5368 2.075 11.5868C2.025 11.6368 2 11.7035 2 11.7868C2 11.8535 2.01667 11.9118 2.05 11.9618C2.08333 12.0118 2.13333 12.0452 2.2 12.0618L6.725 13.3618V13.3618M17.2 13.9868L14.35 13.3368C14.3167 13.3702 14.2833 13.4118 14.25 13.4618C14.2167 13.5118 14.1833 13.5535 14.15 13.5868L19.025 18.4368C19.075 18.4868 19.1417 18.5118 19.225 18.5118C19.3083 18.5118 19.375 18.4868 19.425 18.4368C19.475 18.3868 19.5042 18.3327 19.5125 18.2743C19.5208 18.216 19.5083 18.1535 19.475 18.0868L17.2 13.9868V13.9868M2 19.5118V17.5118H7V19.5118H2V19.5118M12 11.5118V11.5118V11.5118V11.5118V11.5118V11.5118V11.5118V11.5118V11.5118V11.5118M13.075 8.73684V8.73684V8.73684V8.73684V8.73684V8.73684V8.73684V8.73684V8.73684V8.73684V8.73684M9.025 11.5118V11.5118V11.5118V11.5118V11.5118V11.5118V11.5118V11.5118V11.5118V11.5118V11.5118M14.15 13.5868V13.5868V13.5868V13.5868V13.5868V13.5868V13.5868V13.5868V13.5868V13.5868V13.5868" fill="var(--fill-0, #006A70)"/>
</g>
</svg>
