<svg preserveAspectRatio="none" width="100%" height="100%" overflow="visible" style="display: block;" viewBox="0 0 18.4055 20" fill="none" xmlns="http://www.w3.org/2000/svg">
<g id="Container">
<path id="Icon" d="M9.24211 20C8.29211 20 7.45044 19.7 6.71711 19.1C5.98377 18.5 5.52544 17.7333 5.34211 16.8C4.45877 17.0833 3.56711 17.0667 2.66711 16.75C1.76711 16.4333 1.07544 15.8833 0.592105 15.1C0.0921053 14.3 -0.0912281 13.4125 0.0421053 12.4375C0.175439 11.4625 0.608772 10.65 1.34211 10C0.642105 9.36667 0.221272 8.58333 0.0796053 7.65C-0.0620614 6.71667 0.0921053 5.85 0.542105 5.05C0.992105 4.25 1.67127 3.67083 2.57961 3.3125C3.48794 2.95417 4.39211 2.91667 5.29211 3.2C5.47544 2.26667 5.93377 1.5 6.66711 0.9C7.40044 0.3 8.24211 0 9.19211 0C10.1421 0 10.9838 0.3 11.7171 0.9C12.4504 1.5 12.9088 2.26667 13.0921 3.2C14.0254 2.91667 14.9296 2.94167 15.8046 3.275C16.6796 3.60833 17.3588 4.2 17.8421 5.05C18.2921 5.88333 18.4546 6.75417 18.3296 7.6625C18.2046 8.57083 17.7754 9.35 17.0421 10C17.7754 10.65 18.2129 11.4542 18.3546 12.4125C18.4963 13.3708 18.3421 14.2667 17.8921 15.1C17.4088 15.95 16.7296 16.5167 15.8546 16.8C14.9796 17.0833 14.0754 17.0833 13.1421 16.8C12.9588 17.7333 12.5004 18.5 11.7671 19.1C11.0338 19.7 10.1921 20 9.24211 20V20M9.24211 18C10.0254 18 10.6129 17.6625 11.0046 16.9875C11.3963 16.3125 11.3921 15.65 10.9921 15L10.2921 13.85C10.1088 13.9 9.93377 13.9375 9.76711 13.9625C9.60044 13.9875 9.42544 14 9.24211 14C9.07544 14 8.90461 13.9875 8.72961 13.9625C8.55461 13.9375 8.37544 13.9 8.19211 13.85L7.49211 15C7.09211 15.65 7.08794 16.3125 7.47961 16.9875C7.87127 17.6625 8.45877 18 9.24211 18V18M2.24211 14C2.64211 14.6833 3.22961 15.025 4.00461 15.025C4.77961 15.025 5.35877 14.6833 5.74211 14L6.39211 12.85C6.25877 12.7167 6.13377 12.575 6.01711 12.425C5.90044 12.275 5.80044 12.1167 5.71711 11.95C5.63377 11.8 5.55877 11.6458 5.49211 11.4875C5.42544 11.3292 5.36711 11.1667 5.31711 11H3.99211C3.20877 11 2.62544 11.3292 2.24211 11.9875C1.85877 12.6458 1.85877 13.3167 2.24211 14V14M12.6421 14C13.0254 14.6833 13.6046 15.025 14.3796 15.025C15.1546 15.025 15.7421 14.6833 16.1421 14C16.5254 13.3167 16.5254 12.6458 16.1421 11.9875C15.7588 11.3292 15.1754 11 14.3921 11H13.0671C13.0338 11.1667 12.9796 11.3292 12.9046 11.4875C12.8296 11.6458 12.7504 11.8 12.6671 11.95C12.5838 12.1167 12.4838 12.275 12.3671 12.425C12.2504 12.575 12.1254 12.7167 11.9921 12.85L12.6421 14V14M9.19211 10V10V10V10V10V10V10V10V10V10M5.31711 9C5.36711 8.81667 5.42961 8.6375 5.50461 8.4625C5.57961 8.2875 5.65877 8.125 5.74211 7.975C5.82544 7.825 5.92127 7.68333 6.02961 7.55C6.13794 7.41667 6.25877 7.28333 6.39211 7.15L5.74211 6C5.35877 5.31667 4.77961 4.975 4.00461 4.975C3.22961 4.975 2.64211 5.31667 2.24211 6C1.85877 6.68333 1.85877 7.35417 2.24211 8.0125C2.62544 8.67083 3.20877 9 3.99211 9H5.31711V9M14.3921 9C15.1754 9 15.7588 8.67083 16.1421 8.0125C16.5254 7.35417 16.5254 6.68333 16.1421 6C15.7421 5.31667 15.1546 4.975 14.3796 4.975C13.6046 4.975 13.0254 5.31667 12.6421 6L11.9921 7.15C12.1254 7.28333 12.2463 7.41667 12.3546 7.55C12.4629 7.68333 12.5588 7.825 12.6421 7.975C12.7254 8.125 12.8046 8.2875 12.8796 8.4625C12.9546 8.6375 13.0171 8.81667 13.0671 9H14.3921V9M8.11711 6.15C8.30044 6.1 8.4796 6.0625 8.6546 6.0375C8.8296 6.0125 9.00877 6 9.19211 6C9.37544 6 9.55461 6.0125 9.72961 6.0375C9.90461 6.0625 10.0838 6.1 10.2671 6.15L10.9421 5C11.3254 4.35 11.3254 3.6875 10.9421 3.0125C10.5588 2.3375 9.97544 2 9.19211 2C8.40877 2 7.82544 2.33333 7.44211 3C7.05877 3.66667 7.05877 4.33333 7.44211 5L8.11711 6.15V6.15M8.11711 6.15V6.15C8.30044 6.1 8.4796 6.0625 8.6546 6.0375C8.8296 6.0125 9.00877 6 9.19211 6C9.37544 6 9.55461 6.0125 9.72961 6.0375C9.90461 6.0625 10.0838 6.1 10.2671 6.15V6.15C10.0838 6.1 9.90461 6.0625 9.72961 6.0375C9.55461 6.0125 9.37544 6 9.19211 6C9.00877 6 8.8296 6.0125 8.6546 6.0375C8.4796 6.0625 8.30044 6.1 8.11711 6.15V6.15M5.71711 11.95C5.63377 11.8 5.55877 11.6458 5.49211 11.4875C5.42544 11.3292 5.36711 11.1667 5.31711 11V11C5.36711 11.1667 5.42544 11.3292 5.49211 11.4875C5.55877 11.6458 5.63377 11.8 5.71711 11.95C5.80044 12.1167 5.90044 12.275 6.01711 12.425C6.13377 12.575 6.25877 12.7167 6.39211 12.85V12.85C6.25877 12.7167 6.13377 12.575 6.01711 12.425C5.90044 12.275 5.80044 12.1167 5.71711 11.95V11.95M5.31711 9C5.36711 8.81667 5.42961 8.6375 5.50461 8.4625C5.57961 8.2875 5.65877 8.125 5.74211 7.975C5.82544 7.825 5.92127 7.68333 6.02961 7.55C6.13794 7.41667 6.25877 7.28333 6.39211 7.15V7.15C6.25877 7.28333 6.13794 7.41667 6.02961 7.55C5.92127 7.68333 5.82544 7.825 5.74211 7.975C5.65877 8.125 5.57961 8.2875 5.50461 8.4625C5.42961 8.6375 5.36711 8.81667 5.31711 9V9V9M9.24211 14C9.07544 14 8.90461 13.9875 8.72961 13.9625C8.55461 13.9375 8.37544 13.9 8.19211 13.85V13.85C8.37544 13.9 8.55461 13.9375 8.72961 13.9625C8.90461 13.9875 9.07544 14 9.24211 14C9.42544 14 9.60044 13.9875 9.76711 13.9625C9.93377 13.9375 10.1088 13.9 10.2921 13.85V13.85C10.1088 13.9 9.93377 13.9375 9.76711 13.9625C9.60044 13.9875 9.42544 14 9.24211 14V14M11.9921 12.85V12.85C12.1254 12.7167 12.2504 12.575 12.3671 12.425C12.4838 12.275 12.5838 12.1167 12.6671 11.95C12.7504 11.8 12.8296 11.6458 12.9046 11.4875C12.9796 11.3292 13.0338 11.1667 13.0671 11V11C13.0338 11.1667 12.9796 11.3292 12.9046 11.4875C12.8296 11.6458 12.7504 11.8 12.6671 11.95C12.5838 12.1167 12.4838 12.275 12.3671 12.425C12.2504 12.575 12.1254 12.7167 11.9921 12.85V12.85M13.0671 9C13.0171 8.81667 12.9546 8.6375 12.8796 8.4625C12.8046 8.2875 12.7254 8.125 12.6421 7.975C12.5588 7.825 12.4629 7.68333 12.3546 7.55C12.2463 7.41667 12.1254 7.28333 11.9921 7.15V7.15C12.1254 7.28333 12.2463 7.41667 12.3546 7.55C12.4629 7.68333 12.5588 7.825 12.6421 7.975C12.7254 8.125 12.8046 8.2875 12.8796 8.4625C12.9546 8.6375 13.0171 8.81667 13.0671 9V9V9M9.19211 12C9.74211 12 10.2129 11.8042 10.6046 11.4125C10.9963 11.0208 11.1921 10.55 11.1921 10C11.1921 9.45 10.9963 8.97917 10.6046 8.5875C10.2129 8.19583 9.74211 8 9.19211 8C8.64211 8 8.17127 8.19583 7.77961 8.5875C7.38794 8.97917 7.19211 9.45 7.19211 10C7.19211 10.55 7.38794 11.0208 7.77961 11.4125C8.17127 11.8042 8.64211 12 9.19211 12V12" fill="var(--fill-0, #006A70)"/>
</g>
</svg>
